<svg xmlns="http://www.w3.org/2000/svg" viewBox="0 0 24 24" fill="#00A1E0"><path d="M10.006 5.415a4.195 4.195 0 0 1 3.045-1.306c1.56 0 2.954.9 3.69 2.205.63-.3 1.35-.45 2.1-.45 2.85 0 5.159 2.34 5.159 5.22s-2.31 5.22-5.16 5.22c-.45 0-.884-.06-1.305-.165a3.87 3.87 0 0 1-3.42 2.085 3.82 3.82 0 0 1-1.83-.465 4.28 4.28 0 0 1-3.795 2.325c-1.98 0-3.66-1.38-4.125-3.24a3.57 3.57 0 0 1-.72.075c-2.01 0-3.645-1.65-3.645-3.69 0-1.305.675-2.46 1.695-3.12A4.11 4.11 0 0 1 1.2 8.325c0-2.31 1.845-4.17 4.125-4.17 1.14 0 2.19.465 2.94 1.215l1.741.045z"/></svg>
